<svg width="339" height="114" viewBox="0 0 339 114" fill="none" xmlns="http://www.w3.org/2000/svg">
<path d="M93.2 36.8V62.88C97.5733 62.88 100.56 61.9467 102.16 60.08C103.76 58.16 104.56 54.8267 104.56 50.08C104.56 45.3333 103.76 41.9467 102.16 39.92C100.56 37.84 97.5733 36.8 93.2 36.8ZM97.2 78.4V80H77.2V78.4H81.2V36.8H77.2V35.2H93.12C108.8 34.4533 116.64 39.4933 116.64 50.32C116.64 55.12 114.667 58.7733 110.72 61.28C106.773 63.7867 100.933 64.8533 93.2 64.48V78.4H97.2ZM135.478 75.2C136.651 77.8667 138.678 79.2 141.558 79.2C144.438 79.2 146.491 77.84 147.718 75.12C148.945 72.4 149.558 67.92 149.558 61.68C149.558 55.3867 148.945 50.88 147.718 48.16C146.491 45.3867 144.438 44 141.558 44C138.678 44 136.651 45.3867 135.478 48.16C134.305 50.88 133.718 55.3867 133.718 61.68C133.718 67.9733 134.305 72.48 135.478 75.2ZM141.398 80.8C136.331 80.8 131.745 79.1467 127.638 75.84C123.531 72.5333 121.478 67.84 121.478 61.76C121.478 58.5067 122.065 55.6 123.238 53.04C124.465 50.48 126.065 48.4533 128.038 46.96C130.065 45.4667 132.225 44.3467 134.518 43.6C136.811 42.8 139.158 42.4 141.558 42.4C143.958 42.4 146.305 42.8 148.598 43.6C150.945 44.3467 153.105 45.4667 155.078 46.96C157.105 48.4533 158.731 50.48 159.958 53.04C161.185 55.6 161.798 58.48 161.798 61.68C161.798 64.88 161.185 67.7333 159.958 70.24C158.731 72.7467 157.105 74.7467 155.078 76.24C151.025 79.28 146.465 80.8 141.398 80.8ZM187.434 80H167.434V78.4H171.434V44.8H167.434V43.2H183.434V52.72C183.914 50.1067 184.768 47.9733 185.994 46.32C187.274 44.6667 188.661 43.5733 190.154 43.04C191.701 42.5067 193.168 42.24 194.554 42.24C195.994 42.24 197.354 42.5067 198.634 43.04C199.968 43.52 200.954 44.5333 201.594 46.08C202.234 47.5733 202.261 49.0933 201.674 50.64C201.088 52.1333 200.048 53.2 198.554 53.84C197.114 54.48 195.781 54.56 194.554 54.08C193.328 53.6 192.448 52.96 191.914 52.16C191.381 51.3067 191.008 50.5067 190.794 49.76C190.261 47.7867 189.541 46.8 188.634 46.8C187.621 46.8 186.501 48.56 185.274 52.08C184.048 55.5467 183.434 59.2267 183.434 63.12V78.4H187.434V80ZM220.826 44.8V64.32C220.826 68.9067 221.013 71.7067 221.386 72.72C221.76 73.68 222.16 74.5067 222.586 75.2C223.386 76.5867 224.773 77.28 226.746 77.28C228.773 77.28 230.186 77.0133 230.986 76.48V78.08C228.426 79.8933 225.626 80.8 222.586 80.8C218.106 80.8 214.693 79.7333 212.346 77.6C210 75.4667 208.826 71.6533 208.826 66.16V44.8H202.906V43.2H208.826C211.386 42.7733 213.653 41.5467 215.626 39.52C217.6 37.44 218.96 34.5867 219.706 30.96H220.826V43.2H230.106V44.8H220.826ZM273.813 78.4C273.279 78.9333 272.266 79.4133 270.773 79.84C269.279 80.2133 267.546 80.4 265.573 80.4C261.199 80.4 258.453 79.0933 257.333 76.48C254.666 79.2533 250.586 80.64 245.093 80.64C242.159 80.64 239.733 79.9733 237.813 78.64C235.946 77.2533 235.013 75.2267 235.013 72.56C235.013 68.9867 236.399 66.24 239.173 64.32C241.946 62.3467 246.799 60.96 253.733 60.16L256.933 59.76V55.84C256.933 51.2 256.586 48.08 255.893 46.48C255.199 44.88 253.813 44.08 251.733 44.08C249.706 44.08 248.399 44.3733 247.813 44.96C247.226 45.4933 247.013 46.1333 247.173 46.88C247.333 47.5733 247.599 48.5067 247.973 49.68C248.346 50.8533 248.533 51.7867 248.533 52.48C248.533 54.1333 247.946 55.5467 246.773 56.72C245.653 57.84 244.266 58.4 242.613 58.4C241.013 58.4 239.626 57.84 238.453 56.72C237.279 55.5467 236.693 54.1333 236.693 52.48C236.693 49.76 238.079 47.44 240.853 45.52C243.679 43.5467 247.866 42.56 253.413 42.56C259.013 42.56 262.986 43.6533 265.333 45.84C267.733 48.0267 268.933 51.8933 268.933 57.44V71.84C268.933 74.6667 269.279 76.4533 269.973 77.2C270.666 77.8933 271.946 78.0267 273.813 77.6V78.4ZM246.133 70.96C246.399 72.9867 247.146 74.56 248.373 75.68C249.599 76.7467 251.013 77.28 252.613 77.28C254.266 77.28 255.706 76.48 256.933 74.88V61.28L254.053 61.68C251.599 62 249.599 62.9333 248.053 64.48C246.559 66.0267 245.919 68.1867 246.133 70.96ZM294.606 78.4H298.606V80H278.606V78.4H282.606V28H278.606V26.4H294.606V78.4ZM322.231 79.36C327.778 79.36 330.551 77.84 330.551 74.8C330.551 73.0933 329.591 71.7067 327.671 70.64C325.751 69.52 323.431 68.6133 320.711 67.92C317.991 67.2267 315.298 66.4267 312.631 65.52C310.018 64.6133 307.831 63.1733 306.071 61.2C304.365 59.2267 303.671 56.64 303.991 53.44C304.311 50.24 305.938 47.6 308.871 45.52C311.858 43.44 315.511 42.4 319.831 42.4C324.205 42.4 327.725 43.0933 330.391 44.48C333.058 45.8667 334.551 47.7333 334.871 50.08C335.085 51.52 334.845 52.8533 334.151 54.08C333.511 55.3067 332.418 55.9467 330.871 56C329.378 56.0533 328.125 55.6533 327.111 54.8C326.151 53.9467 325.698 52.96 325.751 51.84C325.805 50.72 326.231 49.7333 327.031 48.88C327.831 47.9733 328.231 47.2533 328.231 46.72C328.231 45.8133 327.351 45.1467 325.591 44.72C323.885 44.24 321.885 44 319.591 44C317.351 44 315.511 44.5067 314.071 45.52C312.631 46.5333 311.911 47.7867 311.911 49.28C311.911 50.7733 312.791 52.0533 314.551 53.12C316.365 54.1867 318.551 55.0667 321.111 55.76C323.671 56.4 326.205 57.1467 328.711 58C331.271 58.8 333.431 60.1067 335.191 61.92C337.005 63.7333 337.911 66.0267 337.911 68.8C337.911 72.48 336.605 75.44 333.991 77.68C331.378 79.8667 327.431 80.96 322.151 80.96C316.871 80.96 312.578 80.16 309.271 78.56C306.018 76.96 304.231 74.9067 303.911 72.4C303.698 70.96 303.938 69.6267 304.631 68.4C305.325 67.1733 306.418 66.5333 307.911 66.48C309.405 66.4267 310.631 66.8267 311.591 67.68C312.605 68.5333 313.085 69.52 313.031 70.64C312.978 71.76 312.551 72.7733 311.751 73.68C310.951 74.5333 310.551 75.2267 310.551 75.76C310.551 76.8267 311.778 77.7067 314.231 78.4C316.738 79.04 319.405 79.36 322.231 79.36Z" fill="white"/>
<path d="M34 29.8C26.0674 29.809 18.4624 32.9642 12.8533 38.5733C7.24412 44.1824 4.08895 51.7875 4.07996 59.72C4.07996 66.2125 6.65909 72.4391 11.25 77.03C15.8409 81.6209 22.0675 84.2 28.56 84.2C35.0525 84.2 41.279 81.6209 45.8699 77.03C50.4608 72.4391 53.04 66.2125 53.04 59.72C53.04 54.6703 51.034 49.8274 47.4633 46.2567C43.8926 42.686 39.0497 40.68 34 40.68C28.9502 40.68 24.1073 42.686 20.5366 46.2567C16.966 49.8274 14.96 54.6703 14.96 59.72C14.96 63.3269 16.3928 66.7862 18.9433 69.3366C21.4938 71.8871 24.953 73.32 28.56 73.32C32.1669 73.32 35.6261 71.8871 38.1766 69.3366C40.7271 66.7862 42.16 63.3269 42.16 59.72C42.16 57.5558 41.3002 55.4803 39.7699 53.95C38.2397 52.4197 36.1641 51.56 34 51.56C31.8358 51.56 29.7603 52.4197 28.23 53.95C26.6997 55.4803 25.84 57.5558 25.84 59.72C25.84 60.4414 26.1265 61.1332 26.6366 61.6433C27.1467 62.1534 27.8386 62.44 28.56 62.44C29.2813 62.44 29.9732 62.1534 30.4833 61.6433C30.9934 61.1332 31.28 60.4414 31.28 59.72C31.28 58.9986 31.5665 58.3068 32.0766 57.7967C32.5867 57.2866 33.2786 57 34 57C34.7213 57 35.4132 57.2866 35.9233 57.7967C36.4334 58.3068 36.72 58.9986 36.72 59.72C36.72 61.8842 35.8602 63.9597 34.3299 65.49C32.7997 67.0203 30.7241 67.88 28.56 67.88C26.3958 67.88 24.3203 67.0203 22.79 65.49C21.2597 63.9597 20.4 61.8842 20.4 59.72C20.4 56.113 21.8328 52.6538 24.3833 50.1033C26.9338 47.5528 30.393 46.12 34 46.12C37.6069 46.12 41.0661 47.5528 43.6166 50.1033C46.1671 52.6538 47.6 56.113 47.6 59.72C47.6 64.7697 45.594 69.6126 42.0233 73.1833C38.4526 76.754 33.6097 78.76 28.56 78.76C23.5102 78.76 18.6673 76.754 15.0966 73.1833C11.526 69.6126 9.51996 64.7697 9.51996 59.72C9.51996 53.2275 12.0991 47.0009 16.69 42.41C21.2809 37.8191 27.5075 35.24 34 35.24C40.4925 35.24 46.719 37.8191 51.3099 42.41C55.9008 47.0009 58.48 53.2275 58.48 59.72C58.48 60.4414 58.7665 61.1332 59.2766 61.6433C59.7867 62.1534 60.4786 62.44 61.2 62.44C61.9213 62.44 62.6132 62.1534 63.1233 61.6433C63.6334 61.1332 63.92 60.4414 63.92 59.72C63.911 51.7875 60.7558 44.1824 55.1467 38.5733C49.5375 32.9642 41.9325 29.809 34 29.8V29.8Z" fill="white"/>
</svg>
